<svg xmlns="http://www.w3.org/2000/svg" xmlns:xlink="http://www.w3.org/1999/xlink" width="331" height="251" viewBox="0 0 331 251">
    <defs>
        <path id="a" d="M0 .377h318.81v248.136H0z"/>
        <path id="c" d="M11.873.5c-2.71 1.463-1.232 7.075-2.71 7.075-1.479 0-1.972-2.44-3.45-3.416-.78-.515-2.661.535-5.495.994.281.878.675 2.02 1.19 3.315C3.446 13.6 7.381 21.146 13.721 24.287c2.464 1.22 4.435-1.464 4.435-1.464s.591.422 1.319 1.137c1.264 1.244 2.937 3.371 2.624 5.693-.441 3.27 13.269-4.164 16.206-5.791.352-.195.55-.307.55-.307s-3.527-3.657-4.756-8.227a3.283 3.283 0 0 1-.543-.434c-1.63 2.308-8.335 4.616-18.026-1.754-.658-.43-.764-1.359-.202-1.906C18.03 8.611 14.757.375 12.358.376c-.166 0-.329.04-.485.124"/>
        <linearGradient id="d" x1="25.616%" x2="87.166%" y1="59.88%" y2="29.486%">
            <stop offset="0%" stop-color="#FF8C8C"/>
            <stop offset="100%" stop-color="#E45454"/>
        </linearGradient>
        <path id="f" d="M1.514.495c-.246.246-2.457 11.058 0 15.728 2.456 4.668 7.37 5.16 10.563 7.372 1.385.96 9.673 7.711 19.15 15.246 3.015 2.396 6.152 4.873 9.222 7.267 9.512 7.41 18.412 14.033 21.25 15.086a32.792 32.792 0 0 0 7.187 1.786c-.638-3.234-1.354-7.883-1.978-12.614-1.11-8.456-1.925-17.177-1.481-18.576.05-.157.118-.302.204-.437a2802.59 2802.59 0 0 1-21.478-5.913c-12.26-3.438-24.94-7.121-26.18-7.989-2.457-1.72-6.388-14.99-7.862-15.727-1.474-.737-2.21 6.635-2.948 6.635-.725 0-5.266-7.87-5.636-7.87a.018.018 0 0 0-.013.006"/>
        <linearGradient id="g" x1="2.274%" x2="112.846%" y1="12.015%" y2="82.831%">
            <stop offset="0%" stop-color="#FF8C8C"/>
            <stop offset="100%" stop-color="#E45454"/>
        </linearGradient>
        <path id="i" d="M2.07 21.018c9.305 7.45 18.011 14.108 20.787 15.166a31.37 31.37 0 0 0 7.032 1.796c-1.74-9.062-4.064-29.161-3.385-31.355.049-.158.116-.304.2-.44A2683.732 2683.732 0 0 1 5.694.243c-2.98 3.53-7.767 11.213-3.624 20.776"/>
        <linearGradient id="j" x1="-54.969%" x2="98.212%" y1="-59.256%" y2="82.476%">
            <stop offset="0%" stop-color="#FF8C8C"/>
            <stop offset="100%" stop-color="#E45454"/>
        </linearGradient>
    </defs>
    <g fill="none" fill-rule="evenodd">
        <g>
            <mask id="b" fill="#fff">
                <use xlink:href="#a"/>
            </mask>
            <path fill="#F5E9FF" d="M3.754 113.406S-11.985 75.374 20.99 46.669c32.975-28.705 68.73 9.692 99.38 8.201 30.648-1.49 51.25-56.663 93.035-54.426 41.786 2.236 60.397 42.476 48.656 70.818-11.742 28.343-16.44 73.12-3.973 96.77 12.466 23.65 39.696 5.72 57.183 25.124 17.487 19.403-35.531 55.357-35.531 55.357H173.253s-21.82-33.83-35.204-33.711c-13.385.118-108.315-28.446-134.295-101.396" mask="url(#b)"/>
        </g>
        <path fill="#E5D7FF" d="M231.874 87.676s37.027-46.127-3.365-74.06c-40.392-27.934-62.169 30.817-96.372 37.03C97.934 56.859 29.984 49.9 30.983 102.09c1 52.19 37.223 70.637 39.471 96.082 2.248 25.447 19.735 35.162 36.473 28.316s64.58-87.981 91.564-100.507c26.984-12.527 33.383-38.305 33.383-38.305"/>
        <path fill="#E5D7FF" d="M103.804 34.74s23.046 11.203 27.917-2.32c4.872-13.524-41.432-5.233-27.917 2.32"/>
        <path fill="#456DFF" d="M173.38 237.205s-8.395-29.102-29.83-39.032c1.433 6.096.512 41.995 11.98 50.326h25.291l-7.44-11.294z"/>
        <path stroke="#000" stroke-linecap="round" stroke-linejoin="round" stroke-width="1.794" d="M172.163 233.63s-6.499 4.763-6.805 9.816c-11.876-5.561-16.145-4.908-16.145-4.908M167.715 223.017s-5.965 3.702-6.618 8.521c0 0-9.41-4.643-14.707-4.802M160.688 212.112s-3.83 1.486-4.186 5.379c-5.682-2.322-11.497-2.24-11.497-2.24"/>
        <path stroke="#000" stroke-linecap="round" stroke-linejoin="round" stroke-width="1.794" d="M167.715 248.513c-1.434-2.41-4.915-10.628-9.113-25.177-4.198-14.548-15.052-25.163-15.052-25.163"/>
        <path fill="#A52CE5" d="M196.693 248.5s.102-17.84-24.165-25.484c-3.482 14.257 6.45 25.497 6.45 25.497l17.715-.013z"/>
        <path stroke="#000" stroke-linecap="round" stroke-linejoin="round" stroke-width="1.794" d="M172.527 223.017s15.505 20.03 15.381 25.496M194.057 239.272s-6.021 1.644-6.992 6.037c-5.527-1.77-10.936-.915-10.936-.915"/>
        <path stroke="#000" stroke-linecap="round" stroke-linejoin="round" stroke-width="1.794" d="M188.069 231.538s-4.851 2.832-5.153 6.219c-7.573-2.572-10.103-1.19-10.103-1.19M181.33 226.737s-2.538 2.11-2.854 4.387c-3.44-.982-6.656-.666-6.656-.666"/>
        <path fill="#FFF" d="M83.694 149.682s-4.496-11.431-7.62-16.402c-3.122-4.97-2.872-11.184-5.37-16.9-2.498-5.716-7.37-7.331-8.743-12.798-1.374-5.469-4.747-9.32-4.747-9.32s118.6-21.062 137.148-21.156c18.55-.093 24.521 64.554 24.521 64.554L96.185 162.233l-12.49-12.55z"/>
        <path fill="#320A44" d="M119.197 115.483c1.083-.2 1.69-1.209 1.365-2.245l-1.783-5.682c-.59-1.877-1.022-3.945-1.422-5.786l-.184.026a77.047 77.047 0 0 1-1 5.84l-1.918 8.632.034.121 4.908-.906zm6.431 13.903l-1.85-5.895c-.352-1.123-1.526-1.842-2.633-1.614l-10.197 2.1c-1.187.244-2.392-.504-2.68-1.663l-.786-3.159a1.94 1.94 0 0 1 .01-.985l6.292-22.904c.154-.557.669-.953 1.337-1.031l4.11-.48c.963-.113 1.978.483 2.273 1.336l5.86 16.933c.349 1.008 1.466 1.68 2.484 1.491 1.013-.187 2.126.48 2.496 1.499l.85 2.334c.38 1.048-.14 2.076-1.173 2.29-1.04.213-1.584 1.265-1.207 2.356l1.981 5.723c.4 1.157-.152 2.314-1.244 2.576l-3.204.77c-1.123.27-2.345-.485-2.719-1.677zM139.355 108.03c3.303 8.333 5.928 12.086 8.315 11.568 2.12-.46 1.124-4.666-2.34-12.597-3.03-6.937-5.346-10.698-7.407-10.423-2.049.274-1.724 3.808 1.432 11.453m12.383-2.304c5.776 12.316 4.167 19.245-1.45 20.604-7.9 1.913-14.4-7.443-17.932-16.912-3.617-9.702-3.228-17.204 3.46-17.977 7.168-.828 12.429 6.835 15.922 14.285M163.897 107.226c.803-.148 1.077-.971.622-1.833l-2.508-4.743c-.833-1.574-1.583-3.31-2.265-4.86l-.139.02c.192 1.69.31 3.103.389 4.871l.227 7.114.05.1 3.624-.67zm7.656 11.467L169 113.87c-.488-.924-1.537-1.531-2.35-1.364l-7.454 1.535c-.863.178-1.936-.45-2.388-1.398l-1.236-2.589a1.828 1.828 0 0 1-.19-.805l.248-18.984c.007-.47.33-.8.838-.86l3.134-.367c.736-.085 1.655.432 2.059 1.16l7.927 14.291c.467.842 1.468 1.415 2.23 1.275.756-.14 1.755.43 2.238 1.279l1.105 1.943c.495.871.282 1.71-.485 1.867-.77.159-.996 1.013-.496 1.914l2.61 4.707c.526.947.312 1.876-.486 2.067l-2.336.562c-.817.196-1.903-.438-2.416-1.409z"/>
        <path fill="#490A0A" d="M188.84 233.576l-1.275 14.921h83.74l-3.747-13.105s-75.997-2.795-78.718-1.816"/>
        <path fill="#CB99FF" d="M273.273 239.25c-11.595 12.06-48.744 10.627-69.316 5.363-7.507-1.92-12.808-4.35-13.852-6.823-1.95-4.605-2.08-10.111-1.595-15.655.484-5.592 1.592-11.216 2.084-15.98.21-2.028.205-4.743.071-7.761-.33-7.456-1.463-16.756-2.17-22.066-.347-2.6-.592-4.243-.592-4.243s-20.828 25.533-27.298 31.263c-.949.845-1.59 1.259-1.81 1.103-.798-.57-2.715-7.914-4.457-15.686-1.996-8.894-3.762-18.35-3.37-18.87.021-.03.063-.104.12-.22 1.728-3.534 18.585-45.516 22.139-52.585 1.749-3.478 8.27-9.773 14.62-15.41a379.214 379.214 0 0 1 10.702-9.12c1.876-1.543 3.053-2.482 3.053-2.482s7.093-6.084 12.964-7.787c5.87-1.704 13.943-1.704 13.943-1.704 2.424-.026 4.704.185 6.851.613a28.687 28.687 0 0 1 8.67 3.227c17.826 10.18 23.413 38.541 25.752 60.193 1.21 11.222 1.548 20.642 2.267 24.79 2.446 14.113 6.605 64.243 1.224 69.84"/>
        <path fill="#000" d="M273.273 239.25c-11.595 12.06-48.744 10.627-69.316 5.363-2.27-2.03-4.011-4.222-5.037-6.58-3.108-7.144-7.159-11.96-10.41-15.898.484-5.592 1.592-11.216 2.084-15.98.21-2.028.205-4.743.071-7.761 9.655-13.754 11.172-32.458 10.963-60.384-.164-21.965-8.855-32.256-13.781-36.33a379.214 379.214 0 0 1 10.702-9.12c14.623 5.616 22.743 30.472 28.196 23.25 4.704-6.233 5.773-26.06 8.615-34.61a28.687 28.687 0 0 1 8.67 3.227c6.276 11.314 16.307 34.612 25.752 60.193 1.21 11.222 1.548 20.642 2.267 24.79 2.446 14.113 6.605 64.243 1.224 69.84"/>
        <g transform="translate(184 56)">
            <mask id="e" fill="#fff">
                <use xlink:href="#c"/>
            </mask>
            <path fill="url(#d)" d="M11.873.5c-2.71 1.463-1.232 7.075-2.71 7.075-1.479 0-1.972-2.44-3.45-3.416-.78-.515-2.661.535-5.495.994.281.878.675 2.02 1.19 3.315C3.446 13.6 7.381 21.146 13.721 24.287c2.464 1.22 4.435-1.464 4.435-1.464s.591.422 1.319 1.137c1.264 1.244 2.937 3.371 2.624 5.693-.441 3.27 13.269-4.164 16.206-5.791.352-.195.55-.307.55-.307s-3.527-3.657-4.756-8.227a3.283 3.283 0 0 1-.543-.434c-1.63 2.308-8.335 4.616-18.026-1.754-.658-.43-.764-1.359-.202-1.906C18.03 8.611 14.757.375 12.358.376c-.166 0-.329.04-.485.124" mask="url(#e)"/>
        </g>
        <g>
            <path fill="#000" d="M221.9 79.757s-.193.112-.54.307c-1.484.352-3.28.676-4.421-.243-5.414-4.364-10.86.844-14.14.341-.716-.715-1.299-1.137-1.299-1.137.518-3.08-.04-4.057-3.514-7.11-3.472-3.054-.371-4.85.114-6.559.487-1.708-.728-6.102-1.942-6.102-1.215 0-1.458 6.102-3.4 5.858-1.943-.244-2.915-2.44-5.1-2.197-.877.098-1.834.864-2.665 1.748a52.27 52.27 0 0 1-1.173-3.317c2.793-.459 4.646-1.509 5.416-.993 1.457.976 1.943 3.417 3.4 3.417 1.457 0 0-5.614 2.671-7.079 2.366-1.296 6.255 7.933 3.405 10.74-.553.547-.449 1.477.2 1.906 9.551 6.373 16.16 4.064 17.767 1.755.173.173.35.315.534.435 1.213 4.57 4.688 8.23 4.688 8.23"/>
            <path fill="#320A44" d="M225.736 50.592v.01c-.362 6.56-6.142 14.986-6.142 17.073 0 3.173 1.943 3.661 1.943 3.661s-2.424 1.42-4.324.19a3.215 3.215 0 0 1-.534-.434c-1.607 2.31-8.216 4.618-17.767-1.755-.649-.43-.753-1.36-.2-1.906 2.85-2.807-1.039-12.036-3.405-10.74-2.671 1.465-1.213 7.079-2.671 7.079-1.457 0-1.943-2.441-3.4-3.417-.77-.516-2.623.534-5.416.993-2.497.41-5.743.349-9.641-1.726-4.74-2.521-7.16-8.42-6.616-14.098.406-4.213 2.44-8.304 6.373-10.798-.729 3.905.971 6.834.971 6.834s.486-12.692 8.258-14.645c-1.458 3.174 0 6.103 0 6.103s7.528-11.228 19.429-9.275c8.636 1.415 13.066 5.899 15.336 10.183 2.475 4.666 2.392 9.099 2.392 9.099 4.318 1.252 5.598 4.159 5.414 7.569M201.015 90.496s-.73-3.417.485-5.613c1.215-2.197 14.086-8.055 19.186-8.543 5.1-.489 6.558 2.929 6.801 4.637-10.444-.244-26.472 9.52-26.472 9.52M160.068 204.108c-.01 1.079-.196 1.721-.607 1.772-2.902.364-10.071 3.347-11.608 1.455-.314-.383-.727-1.96-1.176-4.252-.632-3.212-1.338-7.83-1.955-12.528-1.098-8.4-1.904-17.062-1.465-18.45.049-.156.117-.3.202-.435 1.365-2.21 7.01-1.572 7.01-1.572.047.073.099.151.15.234 1.6 2.614 4.007 9.558 5.99 16.627 1.947 6.917 3.484 13.952 3.46 17.149"/>
        </g>
        <g transform="translate(78 140)">
            <mask id="h" fill="#fff">
                <use xlink:href="#f"/>
            </mask>
            <path fill="url(#g)" d="M1.514.495c-.246.246-2.457 11.058 0 15.728 2.456 4.668 7.37 5.16 10.563 7.372 1.385.96 9.673 7.711 19.15 15.246 3.015 2.396 6.152 4.873 9.222 7.267 9.512 7.41 18.412 14.033 21.25 15.086a32.792 32.792 0 0 0 7.187 1.786c-.638-3.234-1.354-7.883-1.978-12.614-1.11-8.456-1.925-17.177-1.481-18.576.05-.157.118-.302.204-.437a2802.59 2802.59 0 0 1-21.478-5.913c-12.26-3.438-24.94-7.121-26.18-7.989-2.457-1.72-6.388-14.99-7.862-15.727-1.474-.737-2.21 6.635-2.948 6.635-.725 0-5.266-7.87-5.636-7.87a.018.018 0 0 0-.013.006" mask="url(#h)"/>
        </g>
        <g transform="translate(117 165)">
            <mask id="k" fill="#fff">
                <use xlink:href="#i"/>
            </mask>
            <path fill="url(#j)" d="M2.07 21.018c9.305 7.45 18.011 14.108 20.787 15.166a31.37 31.37 0 0 0 7.032 1.796c-1.74-9.062-4.064-29.161-3.385-31.355.049-.158.116-.304.2-.44A2683.732 2683.732 0 0 1 5.694.243c-2.98 3.53-7.767 11.213-3.624 20.776" mask="url(#k)"/>
        </g>
        <g>
            <path fill="#000" d="M222.33 71.358s-2.435 1.421-4.343.19a3.228 3.228 0 0 1-.537-.434c-1.615 2.31-8.255 4.62-17.852-1.756-.65-.43-.756-1.36-.2-1.907 2.863-2.808-1.044-12.041-3.42-10.744-2.685 1.465-1.22 7.081-2.685 7.081-1.464 0-1.952-2.442-3.416-3.418-.773-.516-2.635.534-5.441.994-2.509.41-5.77.348-9.687-1.727-4.763-2.523-7.193-8.425-6.647-14.105.446 1.182 2.994 6.606 12.603 7.421-3.487-1.995-2.243-9.062-2.243-9.062s2.992 3.988 10.8 4.614c7.809.624 10.715-1.703 16.947 1.87 6.229 3.575 5.231 6.9 5.231 6.9s1.33-3.574-1.078-6.69c4.734 1.452 4.538 8.685 4.538 8.685s1.94-4.156 5.097-4.905c3.156-.747 3.739 2.217 3.739 2.217s2.188-2.215 2.813-5.968c-.364 6.564-6.17 14.993-6.17 17.081 0 3.175 1.951 3.663 1.951 3.663"/>
            <path fill="#FFF" d="M218.707 33.928c-3.965-5.682-12.364-8.06-19.519-7.535 6.147 2.285 6.023 6.227 6.023 6.227s-1.828-4.813-8.597-4.896c-6.771-.083-9.802 2.244-10.467 4.896-.665 2.65 1.204 5.702 1.204 5.702s-2.908-.25-4.484-4.696c-1.579-4.447.91-6.71.91-6.71-1.464 3.174 0 6.104 0 6.104s7.564-11.232 19.52-9.28c8.678 1.417 13.128 5.903 15.41 10.188"/>
            <path fill="#000" d="M188.394 177.076a324.04 324.04 0 0 0-.59-4.257s-20.778 25.62-27.232 31.371c-.01 1.08-.198 1.722-.61 1.773-2.916.364-10.12 3.348-11.663 1.456-.315-.384-.73-1.96-1.181-4.254a32.543 32.543 0 0 1-7.14-1.775c-2.819-1.046-11.659-7.627-21.107-14.991-3.05-2.378-6.166-4.84-9.16-7.221 8.996 3.238 26.053 9.21 35.442 11.452 2.638.628 4.673.963 5.752.858.815-.079 1.988-.77 3.415-1.932.845-.683 1.777-1.536 2.777-2.522 10.712-10.554 29.174-36.602 29.174-42.181 0-6.587 12.405 9.556 2.123 32.223"/>
            <path fill="#320A44" d="M207.314 193.962s-10.95 10.243-18.675 11.865c-2.243 7.232-1.43 12.22 3.833 12.469 5.263.249 16.477-8.316 17.473-15.131.997-6.815-2.631-9.203-2.631-9.203M214.9 120.953s-11.187 16.522-10.853 3.941c.156-5.79-3.033-11.542-6.522-16.065-4.092-5.306-8.595-8.923-8.595-8.923-1.16-.994 3.072-7.384 8.365-7.384 7.028 2.068 11.549 9.922 14.25 16.85 2.396 6.155 3.355 11.581 3.355 11.581"/>
            <path fill="#000" d="M211.545 109.371c2.396 6.156 3.355 11.582 3.355 11.582s-11.187 16.522-10.853 3.942c.156-5.79-3.033-11.544-6.522-16.066 3.237.389 8.376.813 14.02.542"/>
            <path fill="#320A44" d="M253.97 111.476s-21.028 10.483-14.069 0c2.472-3.724 2.75-8.493 2.081-13.093-1.212-8.35-5.546-16.146-5.546-16.146-.458-1.46 6.737-2.171 11.223.642 2.337 2.642 3.894 5.797 4.914 9.03 2.984 9.445 1.398 19.567 1.398 19.567"/>
            <path fill="#000" d="M253.97 111.476s-21.028 10.483-14.069 0c2.472-3.724 2.75-8.493 2.081-13.093 3.9-2.457 7.497-4.835 10.59-6.474 2.985 9.445 1.399 19.567 1.399 19.567"/>
            <path fill="#4A0884" d="M278.874 211.204a17.792 17.792 0 0 1-.149 2.104c-1.371 9.726-25.169 20.45-33.892 22.52-8.721 2.073-11.937-2.757-11.937-2.757-2.12-.49-3.807-2.408-5.149-5.233-6.212-13.076-5.01-45.578-5.01-45.578l9.512-23.514s2.299-.33 5.786-.71h.005c10.826-1.18 33.082-2.855 33.457 3.28.186 3.02 1.424 9.653 2.836 17.288 2.145 11.587 4.683 25.486 4.541 32.6"/>
            <path fill="#000" d="M274.333 178.604c-1.891 4.491-4.414 8.276-6.448 8.894-4.113 1.245-30.526-.501-33.643-4.865-3.115-4.363-1.346-23.025-1.346-23.025l5.139-1.572h.004c10.827-1.18 33.083-2.854 33.458 3.28.187 3.02 1.423 9.653 2.836 17.288"/>
            <path fill="#4A0884" d="M229.321 199.966c-3.177 16.458 3.575 33.104 3.575 33.104s-12.36 1.124-19.653-7.855c-7.293-8.976-5.602-16.459-5.04-22.817.129-1.482-1.862-5.885-2.035-8.915-.13-2.22 1.398-5.277 1.398-5.277-.61-6.999-1.479-14.356-2.119-19.484-.131-1.055-.253-2.015-.36-2.86-1.06-8.293 4.333-13.445 4.333-13.445 2.333-4.498 8.83-5.511 14.438-4.637 4.304.671 8.081 2.459 9.038 4.637.388.884.627 2.418.74 4.44.102 1.829.102 4.056.014 6.556-.361 10.427-2.218 25.613-4.329 36.553"/>
            <path fill="#4A0884" d="M268.382 176.773c-3.958 2.673-21.68 4.864-27.937 1.123-5.41-3.233-5.45-8.422-6.795-14.483-.21-.95-.454-1.924-.754-2.914a17.975 17.975 0 0 0-1.113-2.758c-2.21-4.452-6.036-8.25-7.925-9.961-.689-.627-1.12-.975-1.12-.975s30.18-22.523 41.72-19.34c4.753 1.31 8.094 5.4 10.395 10.069 3.286 6.67 4.448 14.529 4.558 17.169.185 4.488-7.069 19.396-11.029 22.07"/>
            <path fill="#000" d="M274.853 137.534c-11.273 5.08-34.507 16.126-41.218 19.322-1.183.564-1.852.885-1.852.885s-9.211 13.088-18.35 13.17c-3.598.033-6.18-.966-7.985-2.189-.132-1.056-.254-2.015-.362-2.86-1.059-8.292 4.334-13.445 4.334-13.445 2.333-4.498 8.83-5.511 14.438-4.637-.688-.627-1.12-.975-1.12-.975s30.181-22.523 41.72-19.34c4.753 1.31 8.094 5.4 10.395 10.069"/>
            <path fill="#456DFF" d="M276.98 125.026c-2.367 4.737-56.817 28.18-60.306 31.299-.49.438-.978.861-1.461 1.264-.195.16-.389.317-.583.472-.484.383-.967.744-1.45 1.076-.293.2-.583.388-.878.564-.586.352-1.18.657-1.78.904 0 0 0 .003-.002.003-1.176.48-2.391.742-3.684.705a6.818 6.818 0 0 1-.237-.01c-.078-.005-.159-.01-.236-.017a1.972 1.972 0 0 1-.23-.022c.625.058 1.25.037 1.877-.066 6.248-1.028 10.004-9.84 8.388-19.689a27.565 27.565 0 0 0-1.512-5.568c-2.66-6.822-7.733-11.225-12.723-10.405-2.462.406-4.536 2.018-6.049 4.425.04-.19 1.25-5.653 15.326-10.92 14.33-5.363 28.783-10.226 32.273-11.973 2.647-1.323 9.887-6.094 17.146-7.01 2.306-.29 4.614-.193 6.776.527 8.972 2.994 11.713 19.702 9.346 24.441"/>
            <path fill="#4A0884" d="M208.01 161.198a7.405 7.405 0 0 1-2.119.04c-.009-.002-.017-.005-.026-.006-5.501-.689-10.66-7.289-12.09-16.007-.98-5.97.014-11.56 2.34-15.264 1.512-2.407 3.586-4.02 6.048-4.424 6.247-1.026 12.62 6.127 14.235 15.972 1.616 9.849-2.14 18.66-8.389 19.69"/>
            <path stroke="#000" stroke-linecap="round" stroke-linejoin="round" stroke-width="1.794" d="M213.434 138.367s-4.675-10.998-11.297-8.686c-6.621 2.311-3.82 26.185 2.95 26.268 6.77.084 7.6-18.122 3.363-20.283-4.236-2.161-8.805 6.733-5.4 11.97 3.407 5.238 3.812-3.49 2.737-6.068"/>
            <path fill="#000" d="M276.98 125.026c-2.367 4.737-56.817 28.18-60.306 31.299-.49.438-.978.861-1.461 1.264-.195.16-.389.317-.583.472-.484.385-.967.746-1.45 1.076-.293.2-.583.388-.878.564-.586.352-1.176.657-1.78.904 0 0 0 .003-.002.003-1.173.48-2.391.742-3.684.705a6.818 6.818 0 0 1-.237-.01c-.078-.005-.159-.01-.236-.017a1.972 1.972 0 0 1-.23-.022c.625.058 1.25.037 1.877-.066 6.248-1.028 10.004-9.84 8.388-19.689a27.565 27.565 0 0 0-1.512-5.568c3.181 2.33 7.32 4.369 12.005 4.296 10.27-.159 42.018-23.13 33.968-40.179 2.306-.29 4.614-.193 6.776.527 8.972 2.994 11.713 19.702 9.346 24.441"/>
            <path fill="#320A44" d="M215.237 117.632s16.433 3.647 15.414 31.519c3.716 1.81 10.296-1.454 10.682-5.059.386-3.605-.225-22.178-17.114-29.725-5.302-1.936-8.982 3.265-8.982 3.265M240.444 107.9s15.762 3.498 14.785 30.23c3.563 1.737 9.874-1.395 10.244-4.852.37-3.457-.216-21.27-16.414-28.509-5.085-1.857-8.615 3.131-8.615 3.131"/>
            <path fill="#A52CE5" d="M236.45 124.946s-8.438 1.54-9.06 4.24c-.624 2.698 11.4-1.791 11.027-2.852-.374-1.059-.854-1.621-1.967-1.388M261.37 116.4s-8.438 1.541-9.06 4.239c-.624 2.698 11.4-1.79 11.027-2.85-.375-1.06-.854-1.623-1.967-1.389"/>
            <path fill="#320A44" d="M232.896 233.07c.083.939-6.267 3.295-12.725 2.648-4.568-.457-9.195-2.418-11.637-7.445-4.833-9.95-7.118-27.936-3.914-36.207.705-1.819 1.677-3.169 2.945-3.86 0 0-5.388 18.065 21.361 14.165-.274 2.01-.354 4.151-.293 6.33.298 11.02 4.146 23.034 4.263 24.37M251.076 212.018s1.483 15.006 3.227 15.38c1.744.375 23.425-8.478 23.487-14.838.062-6.36-1.059-11.472-3.676-13.342-2.617-1.87-23.525 8.605-23.038 12.8"/>
            <path fill="#456DFF" d="M266.056 170.49a2.16 2.16 0 1 1-4.235.845 2.16 2.16 0 1 1 4.235-.845"/>
            <path stroke="#000" stroke-linecap="round" stroke-linejoin="round" stroke-width="1.794" d="M218.419 155.95s-4.37 21.862-1.645 36.077"/>
            <path fill="#000" d="M232.896 233.07c.083.939-6.267 3.295-12.725 2.648 8.03-4.581 3.858-26.157 2.567-27.677-1.58-1.856-10.548-.635-15.285-6.536-2.548-3.175-2.979-6.784-2.833-9.439.705-1.819 1.677-3.169 2.945-3.86 0 0-5.388 18.065 21.361 14.165-1.662 12.183 3.828 29.1 3.97 30.7"/>
            <path fill="#000" d="M278.874 211.204a17.792 17.792 0 0 1-.149 2.104c-1.371 9.726-25.169 20.45-33.892 22.52-8.721 2.073-11.937-2.757-11.937-2.757-.118-1.336-3.965-13.35-4.263-24.37l.293-6.33s4.944 23.99 9.926 26.732c4.985 2.742 10.05 1.248 9.719-6.567-.332-7.814 1.832-13.161 6.024-14.937 4.102-1.733 16.164 16.204 24.28 3.605"/>
            <path fill="#A52CE5" d="M293.261 235.67s10.217-35.624 36.3-47.78c-1.745 7.462-.623 51.406-14.578 61.605h-30.776l9.054-13.825z"/>
            <path stroke="#000" stroke-linecap="round" stroke-linejoin="round" stroke-width="1.794" d="M329.561 187.89s-13.207 12.994-18.316 30.802c-5.108 17.81-9.345 27.87-11.09 30.82"/>
            <path stroke="#000" stroke-linecap="round" stroke-linejoin="round" stroke-width="1.794" d="M294.744 231.292s7.907 5.831 8.28 12.017c14.451-6.808 19.646-6.008 19.646-6.008M300.156 218.301s7.259 4.532 8.052 10.43c0 0 11.45-5.681 17.897-5.876M308.706 204.954s4.66 1.819 5.095 6.583c6.914-2.843 13.99-2.742 13.99-2.742"/>
            <path fill="#4A0884" d="M264.894 249.495s-.125-21.836 29.406-31.194c4.236 17.452-7.85 31.21-7.85 31.21l-21.556-.016z"/>
            <path stroke="#000" stroke-linecap="round" stroke-linejoin="round" stroke-width="1.794" d="M294.3 218.301s-18.867 24.52-18.716 31.21M268.1 238.2s7.329 2.013 8.51 7.389c6.725-2.167 13.307-1.12 13.307-1.12"/>
            <path stroke="#000" stroke-linecap="round" stroke-linejoin="round" stroke-width="1.794" d="M275.388 228.732s5.903 3.466 6.27 7.613c9.215-3.148 12.295-1.458 12.295-1.458M283.588 222.855s3.089 2.582 3.474 5.37c4.185-1.2 8.099-.815 8.099-.815"/>
            <path fill="#A52CE5" d="M98.242 229.611s5.98-61.878-65.228-51.778c1.122 28.99 31.96 51.186 65.228 51.778"/>
            <path stroke="#000" stroke-linecap="round" stroke-linejoin="round" stroke-width="1.794" d="M33.014 177.833s25.419 31.221 64.667 50.369M39.552 198.996l13.992-.564s.069-14.4 3.288-21.21"/>
            <path stroke="#000" stroke-linecap="round" stroke-linejoin="round" stroke-width="1.794" d="M50.51 211.858l18.513-1.434s-1.082-24.741 1.266-30.007M65.348 221.67l16.527-2.204s.517-25.893 3.862-28.869"/>
            <path fill="#4A0884" d="M98.242 229.611s-16.01-13.934 0-38.374c12.522 12.22 15.513 31.984 0 38.374"/>
            <path stroke="#000" stroke-linecap="round" stroke-linejoin="round" stroke-width="1.794" d="M98.242 191.237s6.542 10.785 0 38.374M92.764 202.316s6.745 2.762 8.386 4.57c4.319-2.992 5.322-3.721 5.322-3.721"/>
            <path stroke="#000" stroke-linecap="round" stroke-linejoin="round" stroke-width="1.794" d="M91.174 210.424s8.585 3.428 9.54 4.995c4.381-3.233 8.07-3.67 8.07-3.67M91.773 217.843s7.165 3.478 7.845 5.207c3.982-3.756 8.362-3.712 8.362-3.712"/>
        </g>
    </g>
</svg>
